<?xml version="1.0" standalone="no"?><!DOCTYPE svg PUBLIC "-//W3C//DTD SVG 1.1//EN" "http://www.w3.org/Graphics/SVG/1.1/DTD/svg11.dtd"><svg t="1638675907879" class="icon" viewBox="0 0 1024 1024" version="1.1" xmlns="http://www.w3.org/2000/svg" p-id="22326" xmlns:xlink="http://www.w3.org/1999/xlink" width="32" height="32"><defs><style type="text/css"></style></defs><path d="M795.136 926.72h-243.2c-4.608 0-8.704-2.048-11.264-5.12-3.072-3.072-4.096-7.68-3.584-11.776l33.792-296.448c1.024-8.192 8.704-14.336 16.896-13.312 8.192 1.024 14.336 8.704 13.312 16.896l-32.256 279.552h208.896l-32.256-279.552c-1.024-8.192 5.12-15.872 13.312-16.896 8.192-1.024 15.872 5.12 16.896 13.312l33.792 296.448c0.512 4.096-1.024 8.704-3.584 11.776-2.56 3.072-6.656 5.12-10.752 5.12z" fill="#7BA86C" p-id="22327"></path><path d="M721.92 444.416c-8.704 0-15.36-6.656-15.36-15.36v-158.72h-66.56v158.72c0 8.704-6.656 15.36-15.36 15.36s-15.36-6.656-15.36-15.36v-174.08c0-8.704 6.656-15.36 15.36-15.36h97.28c8.704 0 15.36 6.656 15.36 15.36v174.08c0 8.704-6.656 15.36-15.36 15.36z" fill="#2F5E2A" p-id="22328"></path><path d="M581.12 525.824c-2.56 0-5.12-0.512-7.68-2.048l-5.12-3.072-145.92-83.968c-7.168-4.096-9.728-13.824-5.632-20.992l48.64-83.968c2.048-3.584 5.632-6.144 9.216-7.168s8.192-0.512 11.776 1.536l150.528 87.04c4.608 2.56 8.192 7.68 8.192 13.312 0 8.704-6.656 15.36-15.36 15.36-2.56 0-5.632-0.512-7.68-2.048l-5.12-3.072-132.608-76.8-33.28 57.856L588.8 497.152c7.168 4.096 9.728 13.824 5.632 20.992-3.072 5.12-8.192 7.68-13.312 7.68z" fill="#2F5E2A" p-id="22329"></path><path d="M478.72 691.712c-1.536 0-2.56 0-4.096-0.512-4.096-1.024-7.168-3.584-9.216-7.168l-48.64-83.968c-4.096-7.168-1.536-16.896 5.632-20.992L573.44 491.52c7.168-4.096 16.896-1.536 20.992 5.632 4.096 7.168 1.536 16.896-5.632 20.992l-137.728 79.36 33.28 57.856 137.728-79.36c2.56-1.536 5.12-2.048 7.68-2.048 8.704 0 15.36 6.656 15.36 15.36 0 6.144-3.584 11.264-8.192 13.824l-4.096 2.56L486.4 689.664c-2.56 1.536-5.12 2.048-7.68 2.048z" fill="#2F5E2A" p-id="22330"></path><path d="M721.92 776.192h-97.28c-8.704 0-15.36-6.656-15.36-15.36v-174.08c0-8.704 6.656-15.36 15.36-15.36s15.36 6.656 15.36 15.36v158.72h66.56v-158.72c0-8.704 6.656-15.36 15.36-15.36s15.36 6.656 15.36 15.36v174.08c0 8.192-6.656 15.36-15.36 15.36z" fill="#2F5E2A" p-id="22331"></path><path d="M867.84 691.712c-2.56 0-5.12-0.512-7.68-2.048l-150.528-87.04c-4.608-2.56-8.192-7.68-8.192-13.312 0-8.704 6.656-15.36 15.36-15.36 2.56 0 5.632 0.512 7.68 2.048l5.12 3.072 132.608 76.8 33.28-57.856-137.728-79.36c-7.168-4.096-9.728-13.824-5.632-20.992 4.096-7.168 13.824-9.728 20.992-5.632l5.12 3.072 145.92 84.48c3.584 2.048 6.144 5.632 7.168 9.216 1.024 4.096 0.512 8.192-1.536 11.776l-48.64 83.968c-2.048 3.584-5.632 6.144-9.216 7.168h-4.096z" fill="#2F5E2A" p-id="22332"></path><path d="M765.952 525.824c-5.12 0-10.24-2.56-13.312-7.68-4.096-7.168-1.536-16.896 5.632-20.992l5.12-3.072 132.608-76.8-33.28-57.856-137.728 79.36c-2.56 1.536-5.12 2.048-7.68 2.048-8.704 0-15.36-6.656-15.36-15.36 0-6.144 3.584-11.264 8.192-13.824l4.096-2.56L860.16 326.144c3.584-2.048 7.68-2.56 11.776-1.536 4.096 1.024 7.168 3.584 9.216 7.168l48.64 83.968c4.096 7.168 1.536 16.896-5.632 20.992l-151.04 87.04c-2.048 1.536-4.608 2.048-7.168 2.048zM919.04 926.72h-819.2c-8.704 0-15.36-6.656-15.36-15.36s6.656-15.36 15.36-15.36h819.2c8.704 0 15.36 6.656 15.36 15.36s-6.656 15.36-15.36 15.36z" fill="#2F5E2A" p-id="22333"></path><path d="M673.28 615.424c-17.408 0-34.816-4.096-50.176-12.288 0 0-0.512 0-0.512-0.512-2.048-1.024-4.096-2.048-6.144-3.584-30.72-18.944-49.664-52.224-50.688-88.064v-3.072-3.584c1.024-35.84 19.968-68.608 51.2-88.064 2.048-1.024 3.584-2.048 5.632-3.584 0 0 0.512 0 0.512-0.512 30.72-16.384 69.632-16.384 100.352 0 0 0 0.512 0 0.512 0.512 2.048 1.024 4.096 2.048 6.144 3.584 30.72 18.944 49.664 52.224 50.688 88.064V510.976c-1.024 35.84-19.968 69.12-51.2 88.064l-3.072 1.536c-1.024 1.024-2.048 1.536-3.584 2.048-14.848 8.704-32.256 12.8-49.664 12.8z m-36.864-40.448c0.512 0 0.512 0.512 1.024 0.512 22.016 11.776 50.688 11.776 72.704 0 0.512-0.512 1.536-0.512 2.56-1.024 0.512-0.512 1.024-1.024 2.048-1.536 22.016-13.824 35.84-37.376 36.352-62.976v-2.56-2.048c-1.024-26.112-14.336-49.664-36.352-63.488-1.024-0.512-2.048-1.536-3.584-2.048-0.512 0-0.512-0.512-1.024-0.512-22.016-11.776-50.688-11.776-72.704 0-0.512 0-0.512 0.512-1.024 0.512-1.024 0.512-2.048 1.024-3.072 2.048-22.016 13.824-35.84 37.376-36.352 62.976v4.608c1.024 26.112 14.336 49.664 36.352 63.488 0.512 1.024 1.536 1.536 3.072 2.048z" fill="#2F5E2A" p-id="22334"></path><path d="M281.088 300.544c17.92-11.264 30.208-31.232 31.232-53.76v-2.048-2.048c-0.512-22.528-12.8-42.496-31.232-53.76-1.024-0.512-2.56-1.536-3.584-2.048-9.216-5.12-19.968-7.68-31.232-7.68s-22.016 3.072-31.232 7.68c-1.024 0.512-2.56 1.024-3.584 2.048-17.92 11.264-30.208 31.232-31.232 53.76v4.096c0.512 22.528 12.8 42.496 31.232 53.76 1.024 0.512 2.56 1.536 3.584 2.048 9.216 5.12 19.968 7.68 31.232 7.68s22.016-3.072 31.232-7.68" fill="#EBF7E0" p-id="22335"></path><path d="M246.784 414.72c-4.096 0-8.192-1.536-11.264-5.12-22.016-23.552-44.544-31.232-76.8-25.088-4.608 1.024-9.216-0.512-12.8-3.072-3.584-3.072-5.632-7.168-5.632-11.776 0-30.208-14.336-49.664-46.592-62.976-4.096-1.536-7.168-5.12-8.704-9.216-1.536-4.096-1.024-8.704 1.024-12.288 14.848-27.136 14.848-53.76 0-80.896-4.096-7.168-1.536-16.384 5.632-20.48 29.696-17.92 45.056-39.424 49.152-66.048 1.024-8.192 8.704-13.824 16.896-13.312 34.304 4.096 57.856-3.584 77.824-24.576 3.072-3.072 7.68-5.12 11.776-5.12 4.608 0 8.704 2.56 11.264 6.144 16.896 22.528 40.448 29.696 75.776 23.552 4.096-0.512 8.704 0.512 12.288 3.072s5.632 6.656 5.632 11.264c3.072 45.568 25.6 57.856 45.056 63.488 4.096 1.024 7.68 4.608 9.728 8.704 2.048 4.096 1.536 8.704 0 12.8-9.728 19.968-9.216 50.176 1.024 84.48 1.024 4.096 0.512 8.704-1.536 12.288s-6.144 6.144-10.24 7.168c-24.064 4.608-38.4 26.112-44.032 64-0.512 4.096-3.072 8.192-6.144 10.24-3.584 2.56-7.68 3.584-11.776 2.56-26.624-5.632-52.224 2.56-77.312 25.6-3.072 3.072-6.656 4.608-10.24 4.608zM178.176 352.256c26.112 0 48.64 8.704 69.12 26.624 24.576-18.944 50.688-27.648 77.312-26.112 9.216-41.984 29.696-61.44 50.176-70.144-5.12-23.04-8.192-50.688-1.024-76.288-27.648-12.8-44.032-35.84-49.664-69.12-32.256 2.56-58.368-5.632-78.336-25.088-20.992 17.408-46.592 25.088-77.312 24.064-7.168 26.112-23.04 47.616-48.64 66.048 11.776 27.648 11.776 55.296 0.512 82.944 28.16 15.36 45.056 37.888 49.664 67.072h8.192z" fill="#7BA86C" p-id="22336"></path><path d="M246.784 326.144c-13.312 0-26.112-3.072-37.888-9.216 0 0-0.512 0-0.512-0.512-1.536-1.024-3.072-1.536-4.608-2.56-23.04-14.336-37.376-38.912-38.4-66.56v-2.56-3.072c1.024-27.136 15.36-51.712 38.4-66.048 1.536-1.024 3.072-1.536 4.608-2.56 0 0 0.512 0 0.512-0.512 23.04-12.288 52.224-12.288 75.264 0 0 0 0.512 0 0.512 0.512 1.536 1.024 3.072 1.536 4.608 2.56 23.04 14.336 37.376 38.912 38.4 66.56v5.632c-1.024 27.136-15.36 51.712-38.4 66.048-0.512 0.512-1.536 1.024-2.048 1.024-1.024 0.512-1.536 1.024-2.56 1.536-11.776 6.144-25.088 9.728-37.888 9.728z m-24.576-37.376s0.512 0 0.512 0.512c14.336 7.68 32.768 7.68 47.616 0 0.512-0.512 1.024-0.512 1.536-0.512 0.512-0.512 1.024-0.512 1.024-1.024 14.336-8.704 23.552-24.576 24.064-41.472v-1.536-1.024c-0.512-17.408-9.216-32.768-24.064-41.472-0.512-0.512-1.536-1.024-2.048-1.024 0 0-0.512 0-0.512-0.512-14.336-7.68-32.768-7.68-47.616 0 0 0-0.512 0-0.512 0.512-0.512 0.512-1.536 0.512-2.048 1.024-14.336 9.216-23.552 24.576-24.064 41.472v2.56c0.512 17.408 9.216 32.768 24.064 41.472 0.512 0.512 1.536 1.024 2.048 1.024z" fill="#2F5E2A" p-id="22337"></path></svg>