<?xml version="1.0" standalone="no"?><!DOCTYPE svg PUBLIC "-//W3C//DTD SVG 1.1//EN" "http://www.w3.org/Graphics/SVG/1.1/DTD/svg11.dtd"><svg t="1638675806206" class="icon" viewBox="0 0 1024 1024" version="1.1" xmlns="http://www.w3.org/2000/svg" p-id="10619" xmlns:xlink="http://www.w3.org/1999/xlink" width="200" height="200"><defs><style type="text/css"></style></defs><path d="M665.6 492.032c-36.352 0-70.144-13.824-95.744-39.424C517.12 399.36 517.12 313.856 569.856 261.12c25.6-25.6 59.392-39.424 95.744-39.424s70.144 13.824 95.744 39.424c52.736 52.736 52.736 138.752 0 191.488-25.6 25.088-59.904 39.424-95.744 39.424z m0-209.408c-18.944 0-37.888 7.168-52.224 21.504-28.672 28.672-28.672 75.776 0 104.448 28.672 28.672 75.776 28.672 104.448 0 28.672-28.672 28.672-75.776 0-104.448-14.336-14.336-33.28-21.504-52.224-21.504z" fill="#E09527" p-id="10620"></path><path d="M336.896 715.776c-7.68 0-15.872-3.072-21.504-9.216l-72.192-72.192c-7.168-7.168-10.24-17.408-8.704-27.136l25.6-144.896c-81.92-8.704-150.528 13.312-151.552 13.824-10.24 3.584-22.016 1.024-30.208-6.144-8.192-7.168-11.776-18.432-9.216-29.184 18.432-85.504 58.88-148.48 121.344-187.904 85.504-53.76 184.832-46.08 223.744-40.448 131.072-115.2 255.488-141.312 337.92-142.848 93.184-1.536 154.112 27.648 156.672 28.672 15.36 7.168 21.504 25.6 14.336 40.96-7.168 15.36-25.6 21.504-40.96 14.336-8.704-4.096-209.92-95.232-438.272 114.176-7.68 6.656-17.92 9.728-27.648 7.168-1.024 0-109.568-24.064-193.536 29.696C187.392 327.68 160.768 361.472 143.36 405.504c39.936-6.656 97.28-10.752 158.208 1.536 16.384 3.072 27.136 18.944 24.064 35.328l-28.16 160.256L358.4 663.552c11.776 11.776 11.776 31.232 0 43.52-5.632 5.632-13.824 8.704-21.504 8.704z" fill="#A32A1F" p-id="10621"></path><path d="M574.976 953.856c-8.704 0-16.896-3.584-23.04-10.24-7.168-8.192-9.728-19.456-6.144-30.208 0-0.512 22.016-70.144 13.824-151.552l-144.896 25.6c-9.728 1.536-19.968-1.536-27.136-8.704L315.392 706.56c-11.776-11.776-11.776-31.232 0-43.52 11.776-11.776 31.232-11.776 43.52 0l60.928 61.44 160.256-28.16c16.384-3.072 32.256 7.68 35.328 24.064 12.288 60.928 7.68 118.784 1.536 158.208 44.032-17.408 77.312-44.032 100.352-79.36 53.248-83.968 29.696-192.512 29.696-193.536-2.048-9.728 0.512-19.968 7.168-27.648 209.408-228.864 118.272-429.568 114.176-438.272-7.168-15.36-1.024-33.792 14.336-40.96 15.36-7.168 33.28-1.024 40.96 14.336 1.024 2.56 30.208 63.488 28.672 156.672-1.024 82.432-27.136 206.848-142.848 337.92 5.632 38.4 13.824 138.24-40.448 223.744-39.424 61.952-102.4 102.912-187.392 121.344-2.048 1.024-4.608 1.024-6.656 1.024z" fill="#A32A1F" p-id="10622"></path><path d="M160.256 891.904c-7.68 0-15.872-3.072-21.504-9.216-11.776-11.776-11.776-31.232 0-43.52l115.712-115.712c11.776-11.776 31.232-11.776 43.52 0s11.776 31.232 0 43.52l-115.712 115.712c-6.656 6.144-14.336 9.216-22.016 9.216zM261.632 928.256c-7.68 0-15.872-3.072-21.504-9.216-11.776-11.776-11.776-31.232 0-43.52l50.688-50.688c11.776-11.776 31.232-11.776 43.52 0 11.776 11.776 11.776 31.232 0 43.52l-50.688 50.688c-6.656 6.144-14.336 9.216-22.016 9.216zM123.904 790.528c-7.68 0-15.872-3.072-21.504-9.216-11.776-11.776-11.776-31.232 0-43.52l50.688-50.688c11.776-11.776 31.232-11.776 43.52 0 11.776 11.776 11.776 31.232 0 43.52l-50.688 50.688c-6.144 6.144-14.336 9.216-22.016 9.216z" fill="#E09527" p-id="10623"></path></svg>